<svg width="291" height="58" viewBox="0 0 291 58" fill="none" xmlns="http://www.w3.org/2000/svg">
<circle cx="231.5" cy="29.5" r="21.4753" fill="#040404"/>
<circle cx="231.5" cy="29.5" r="19.963" fill="white"/>
<circle cx="231.5" cy="29.5" r="13.9136" fill="black"/>
<circle cx="231.5" cy="29.5" r="12.4012" fill="white"/>
<rect x="230.012" y="5.01468" width="3" height="49" fill="black"/>
<rect x="208.025" y="28" width="48" height="3" fill="black"/>
<circle cx="231.5" cy="29.5" r="4.83951" fill="white"/>
<rect x="230" y="27.99" width="3.02469" height="3.02469" fill="black"/>
<path d="M20.24 23.92C20.24 21.7867 19.5733 20.24 18.24 19.28C16.9333 18.2933 15.2933 17.8 13.32 17.8C12.7867 17.8 12.24 17.8133 11.68 17.84C11.12 17.84 10.56 17.84 10 17.84C9.73333 17.84 9.46667 17.92 9.2 18.08C8.93333 18.24 8.8 18.4667 8.8 18.76V30.12C9.38667 30.5467 10.1067 30.8 10.96 30.88C11.8133 30.96 12.5733 31 13.24 31C15.5333 31 17.2667 30.3867 18.44 29.16C19.64 27.9333 20.24 26.1867 20.24 23.92ZM24.64 23.8C24.64 25.5333 24.3067 26.9467 23.64 28.04C23 29.1333 22.1333 29.9867 21.04 30.6C19.9467 31.2133 18.7067 31.64 17.32 31.88C15.96 32.0933 14.56 32.2 13.12 32.2C12.4 32.2 11.68 32.16 10.96 32.08C10.24 32 9.53333 31.9067 8.84 31.8V43.76C8.84 44.16 9.01333 44.4267 9.36 44.56C9.70667 44.6933 10.0933 44.76 10.52 44.76C10.9467 44.76 11.2933 44.76 11.56 44.76C11.72 44.76 11.88 44.76 12.04 44.76C12.2267 44.7333 12.4 44.72 12.56 44.72C12.8 44.72 12.92 44.8267 12.92 45.04C12.92 45.3867 12.8933 45.6267 12.84 45.76C12.7867 45.8667 12.5733 45.92 12.2 45.92C11.2933 45.92 10.4 45.8933 9.52 45.84C8.64 45.7867 7.76 45.76 6.88 45.76C5.97333 45.76 5.05333 45.8 4.12 45.88C3.21333 45.9333 2.30667 45.96 1.4 45.96C1.13333 45.96 1 45.7867 1 45.44C1 45.28 1.02667 45.1333 1.08 45C1.13333 44.8667 1.26667 44.8 1.48 44.8C1.8 44.8 2.12 44.8133 2.44 44.84C2.76 44.84 3.08 44.84 3.4 44.84C3.72 44.84 4 44.76 4.24 44.6C4.50667 44.44 4.65333 44.1867 4.68 43.84C4.73333 43.36 4.74667 42.88 4.72 42.4C4.72 41.8933 4.72 41.4 4.72 40.92C4.72 39.96 4.72 39 4.72 38.04C4.72 37.0533 4.72 36.08 4.72 35.12V28.12C4.72 26.5467 4.70667 24.9867 4.68 23.44C4.68 21.8667 4.68 20.3067 4.68 18.76C4.68 18.28 4.44 18 3.96 17.92C3.50667 17.8133 3.10667 17.76 2.76 17.76C2.52 17.76 2.28 17.7733 2.04 17.8C1.8 17.8 1.57333 17.8 1.36 17.8C1.17333 17.8 1.06667 17.72 1.04 17.56C1.04 17.3733 1.04 17.2267 1.04 17.12C1.04 17.0133 1.06667 16.92 1.12 16.84C1.17333 16.7333 1.25333 16.68 1.36 16.68C2.24 16.68 3.12 16.7067 4 16.76C4.88 16.8133 5.77333 16.84 6.68 16.84C8.06667 16.84 9.45333 16.8133 10.84 16.76C12.2267 16.7067 13.6133 16.68 15 16.68C16.12 16.68 17.24 16.8 18.36 17.04C19.5067 17.28 20.5467 17.68 21.48 18.24C22.44 18.8 23.2 19.5333 23.76 20.44C24.3467 21.3467 24.64 22.4667 24.64 23.8ZM42.3609 28.2C42.3609 28.4667 42.2543 28.72 42.0409 28.96C41.8543 29.1733 41.6143 29.28 41.3209 29.28C40.9209 29.28 40.6276 29.1467 40.4409 28.88C40.2809 28.6133 40.1343 28.3067 40.0009 27.96C39.8943 27.6133 39.7209 27.3067 39.4809 27.04C39.2409 26.7733 38.8409 26.64 38.2809 26.64C38.1743 26.64 38.0676 26.64 37.9609 26.64C37.8809 26.64 37.7876 26.6533 37.6809 26.68C37.2276 26.76 36.7343 27.04 36.2009 27.52C35.6676 28 35.1476 28.5733 34.6409 29.24C34.1609 29.88 33.7609 30.52 33.4409 31.16C33.1209 31.8 32.9476 32.3333 32.9209 32.76C32.8943 33.1867 32.8809 33.6133 32.8809 34.04C32.8809 34.44 32.8809 34.84 32.8809 35.24C32.8809 36.68 32.8809 38.12 32.8809 39.56C32.9076 41 32.9209 42.4267 32.9209 43.84C32.9209 44.24 33.0809 44.5333 33.4009 44.72C33.7476 44.88 34.0943 44.96 34.4409 44.96C34.7076 44.96 34.9743 44.9467 35.2409 44.92C35.5076 44.8933 35.7743 44.88 36.0409 44.88C36.1743 44.88 36.2676 44.9467 36.3209 45.08C36.3743 45.1867 36.4009 45.2933 36.4009 45.4C36.4009 45.8267 36.1876 46.04 35.7609 46.04C34.9609 46.04 34.1609 46.0267 33.3609 46C32.5609 45.9467 31.7609 45.92 30.9609 45.92C30.1343 45.92 29.2943 45.9467 28.4409 46C27.6143 46.0533 26.7743 46.08 25.9209 46.08C25.8143 46.08 25.7343 46 25.6809 45.84C25.6543 45.68 25.6409 45.5467 25.6409 45.44C25.6409 45.1733 25.7476 45.0267 25.9609 45C26.2543 44.9467 26.5609 44.9333 26.8809 44.96C27.2009 44.9867 27.4943 45 27.7609 45C28.1609 45 28.4809 44.92 28.7209 44.76C28.9876 44.5733 29.1343 44.2667 29.1609 43.84C29.2143 42.9867 29.2409 42.12 29.2409 41.24C29.2676 40.36 29.2809 39.48 29.2809 38.6V34.72C29.2543 33.5733 29.2409 32.44 29.2409 31.32C29.2676 30.1733 29.2276 29.04 29.1209 27.92C29.0943 27.3867 28.9476 27.0133 28.6809 26.8C28.4143 26.56 28.0143 26.44 27.4809 26.44C27.2676 26.44 27.0409 26.4667 26.8009 26.52C26.5876 26.5467 26.3609 26.56 26.1209 26.56C25.9076 26.56 25.8009 26.4 25.8009 26.08C25.8009 25.8933 25.8943 25.76 26.0809 25.68C26.3476 25.6 26.6276 25.5467 26.9209 25.52C27.2143 25.4667 27.4943 25.4267 27.7609 25.4C28.4809 25.2667 29.2009 25.1333 29.9209 25C30.6409 24.8667 31.3609 24.7067 32.0809 24.52C32.3209 24.6 32.4943 24.7467 32.6009 24.96C32.6543 25.0667 32.6943 25.36 32.7209 25.84C32.7476 26.32 32.7609 26.88 32.7609 27.52C32.7609 28.1333 32.7609 28.72 32.7609 29.28C32.7609 29.8133 32.7609 30.1867 32.7609 30.4C33.3476 29.4667 34.0143 28.5333 34.7609 27.6C35.5076 26.6667 36.3609 25.8933 37.3209 25.28C38.2809 24.6667 39.3609 24.36 40.5609 24.36C41.2009 24.36 41.6143 24.56 41.8009 24.96C41.9876 25.36 42.1076 25.8267 42.1609 26.36C42.2143 26.6533 42.2543 26.96 42.2809 27.28C42.3343 27.6 42.3609 27.9067 42.3609 28.2ZM59.0544 31.96C59.0277 30.8667 58.9344 29.8267 58.7744 28.84C58.6144 27.8267 58.2277 27 57.6144 26.36C57.001 25.6933 56.001 25.36 54.6144 25.36C53.361 25.36 52.3344 25.7067 51.5344 26.4C50.761 27.0667 50.161 27.92 49.7344 28.96C49.3077 29.9733 48.9877 31.0133 48.7744 32.08C49.441 32.1067 50.0944 32.1333 50.7344 32.16C51.3744 32.16 52.0144 32.16 52.6544 32.16C53.721 32.16 54.7877 32.1467 55.8544 32.12C56.921 32.0667 57.9877 32.0133 59.0544 31.96ZM63.6544 41.12C63.6544 41.2533 63.6277 41.3333 63.5744 41.36C63.4944 41.6267 63.2944 41.9467 62.9744 42.32C62.681 42.6933 62.3477 43.0533 61.9744 43.4C61.601 43.72 61.2944 43.96 61.0544 44.12C60.1744 44.7333 59.1744 45.2267 58.0544 45.6C56.961 45.9733 55.8677 46.16 54.7744 46.16C53.8677 46.16 52.8544 46.0133 51.7344 45.72C50.641 45.4267 49.7077 45.0267 48.9344 44.52C47.441 43.5333 46.3477 42.24 45.6544 40.64C44.961 39.04 44.6144 37.3733 44.6144 35.64C44.6144 33.6667 45.001 31.84 45.7744 30.16C46.5477 28.48 47.7877 27.12 49.4944 26.08C50.2677 25.6267 51.1344 25.2533 52.0944 24.96C53.0544 24.64 53.9744 24.48 54.8544 24.48C56.4277 24.48 57.8144 24.8 59.0144 25.44C60.2144 26.08 61.1477 26.9867 61.8144 28.16C62.5077 29.3067 62.8544 30.68 62.8544 32.28C62.8544 32.7333 62.7477 33.0267 62.5344 33.16C62.3477 33.2933 62.0544 33.36 61.6544 33.36C61.121 33.36 60.5877 33.3467 60.0544 33.32C59.521 33.2933 58.9877 33.2667 58.4544 33.24C57.7077 33.1867 56.961 33.16 56.2144 33.16C55.4944 33.16 54.761 33.16 54.0144 33.16C53.1077 33.16 52.201 33.16 51.2944 33.16C50.3877 33.16 49.481 33.1867 48.5744 33.24C48.5477 33.6667 48.521 34.08 48.4944 34.48C48.4677 34.88 48.4544 35.2933 48.4544 35.72C48.4544 36.7067 48.5744 37.7333 48.8144 38.8C49.0544 39.84 49.441 40.8133 49.9744 41.72C50.5077 42.6 51.1877 43.32 52.0144 43.88C52.841 44.4133 53.841 44.68 55.0144 44.68C56.2144 44.68 57.361 44.4933 58.4544 44.12C59.5477 43.7467 60.5477 43.1467 61.4544 42.32C61.6944 42.08 61.9077 41.8267 62.0944 41.56C62.3077 41.2667 62.5344 41.0133 62.7744 40.8C62.9077 40.6667 63.0544 40.6 63.2144 40.6C63.3477 40.6 63.4544 40.6533 63.5344 40.76C63.6144 40.8667 63.6544 40.9867 63.6544 41.12ZM85.5313 41.04C85.5313 41.2267 85.3846 41.4933 85.0912 41.84C84.7979 42.16 84.5846 42.3867 84.4513 42.52C84.2113 42.76 83.9713 43 83.7313 43.24C83.4913 43.48 83.2246 43.7067 82.9313 43.92C82.1046 44.5067 81.1179 45.0133 79.9713 45.44C78.8246 45.84 77.7446 46.04 76.7313 46.04C74.7046 46.04 72.9179 45.6 71.3713 44.72C69.8513 43.8133 68.6513 42.5867 67.7713 41.04C66.9179 39.4667 66.4913 37.68 66.4913 35.68C66.4913 33.7067 66.8913 31.8533 67.6913 30.12C68.4913 28.3867 69.7579 26.9867 71.4913 25.92C72.2379 25.4667 73.0646 25.1067 73.9713 24.84C74.9046 24.5733 75.7979 24.44 76.6513 24.44C77.3179 24.44 77.9579 24.52 78.5713 24.68C79.2113 24.84 79.8246 25.0533 80.4113 25.32C80.7579 25.48 81.0913 25.64 81.4113 25.8C81.7313 25.96 82.0779 26.04 82.4513 26.04C82.7713 26.04 83.0246 25.9467 83.2113 25.76C83.4246 25.5467 83.5846 25.44 83.6913 25.44C83.7713 25.44 83.8113 25.4933 83.8113 25.6C83.8646 25.92 83.8779 26.24 83.8513 26.56C83.8513 26.88 83.8646 27.1867 83.8913 27.48C83.9179 28.0667 83.9446 28.6533 83.9713 29.24C83.9979 29.8267 84.0246 30.4133 84.0513 31V31.12C84.0779 31.4133 84.0513 31.64 83.9713 31.8C83.8913 31.96 83.6779 32.04 83.3313 32.04C83.1446 32.04 83.0113 31.9333 82.9313 31.72C82.8779 31.5067 82.8246 31.32 82.7713 31.16C82.5846 30.3867 82.3046 29.56 81.9313 28.68C81.5579 27.8 81.0513 27.0933 80.4113 26.56C80.0113 26.1867 79.5046 25.88 78.8913 25.64C78.3046 25.4 77.7446 25.28 77.2113 25.28C75.9313 25.28 74.8379 25.6133 73.9313 26.28C73.0513 26.92 72.3446 27.76 71.8113 28.8C71.2779 29.8133 70.8779 30.9067 70.6113 32.08C70.3713 33.2533 70.2513 34.36 70.2513 35.4C70.2513 36.44 70.3713 37.5067 70.6113 38.6C70.8513 39.6667 71.2246 40.6667 71.7313 41.6C72.2646 42.5333 72.9579 43.28 73.8113 43.84C74.6913 44.4 75.7446 44.68 76.9713 44.68C78.6779 44.68 80.1046 44.3733 81.2513 43.76C82.3979 43.12 83.5046 42.1467 84.5713 40.84C84.6779 40.6533 84.8246 40.56 85.0113 40.56C85.3579 40.56 85.5313 40.72 85.5313 41.04ZM98.8128 45.4C98.8128 45.5333 98.7728 45.6667 98.6928 45.8C98.6128 45.9067 98.5061 45.96 98.3728 45.96C97.6261 45.96 96.8795 45.9467 96.1328 45.92C95.4128 45.8667 94.6661 45.84 93.8928 45.84H92.8128C92.0128 45.84 91.2128 45.8667 90.4128 45.92C89.6395 45.9467 88.8661 45.96 88.0928 45.96C87.9861 45.96 87.9061 45.8933 87.8528 45.76C87.8261 45.6267 87.8128 45.52 87.8128 45.44C87.8128 45.3067 87.8261 45.2133 87.8528 45.16C87.8795 45.08 87.9595 45.0267 88.0928 45C88.2261 44.9467 88.3728 44.9333 88.5328 44.96C88.7195 44.96 88.8928 44.96 89.0528 44.96C89.2395 44.96 89.4128 44.9733 89.5728 45C89.7328 45 89.9061 45 90.0928 45C90.4661 45 90.7995 44.92 91.0928 44.76C91.4128 44.5733 91.5728 44.2667 91.5728 43.84V27.84C91.5728 27.3867 91.4928 27.04 91.3328 26.8C91.1728 26.5333 90.8395 26.4 90.3328 26.4C89.9595 26.4 89.5728 26.4267 89.1728 26.48C88.7995 26.5067 88.4261 26.5467 88.0528 26.6C87.8395 26.6 87.7328 26.48 87.7328 26.24C87.7328 25.9733 87.8395 25.8 88.0528 25.72C88.3728 25.6133 88.7061 25.5467 89.0528 25.52C89.4261 25.4667 89.7728 25.4133 90.0928 25.36C90.8395 25.2267 91.5861 25.08 92.3328 24.92C93.0795 24.76 93.8128 24.5867 94.5328 24.4C94.6128 24.3733 94.7195 24.36 94.8528 24.36C95.1461 24.36 95.2928 24.52 95.2928 24.84C95.2928 27.9867 95.2795 31.1467 95.2528 34.32C95.2528 37.4933 95.2528 40.6667 95.2528 43.84C95.2528 44.2667 95.4395 44.5733 95.8128 44.76C96.2128 44.92 96.5861 45 96.9328 45C97.1995 45 97.4661 44.9867 97.7328 44.96C98.0261 44.9333 98.3061 44.92 98.5728 44.92C98.6795 44.92 98.7461 44.9867 98.7728 45.12C98.7995 45.2533 98.8128 45.3467 98.8128 45.4ZM95.5728 17.72C95.5728 18.3867 95.3328 18.96 94.8528 19.44C94.3728 19.8933 93.7995 20.12 93.1328 20.12C92.4661 20.12 91.8928 19.8933 91.4128 19.44C90.9328 18.96 90.6928 18.3867 90.6928 17.72C90.6928 17.0533 90.9328 16.4933 91.4128 16.04C91.8928 15.56 92.4661 15.32 93.1328 15.32C93.7995 15.32 94.3728 15.56 94.8528 16.04C95.3328 16.4933 95.5728 17.0533 95.5728 17.72ZM116.443 40.28C116.443 41.48 116.176 42.4667 115.643 43.24C115.109 43.9867 114.416 44.56 113.563 44.96C112.709 45.36 111.776 45.64 110.763 45.8C109.749 45.96 108.763 46.04 107.803 46.04C106.923 46.04 106.043 45.9467 105.163 45.76C104.309 45.5733 103.443 45.44 102.563 45.36C102.376 44.64 102.189 43.92 102.003 43.2C101.843 42.48 101.656 41.7733 101.443 41.08C101.416 41 101.349 40.8133 101.243 40.52C101.163 40.2267 101.123 40.0667 101.123 40.04C101.123 39.8267 101.189 39.68 101.323 39.6C101.456 39.4933 101.616 39.44 101.803 39.44C101.989 39.44 102.123 39.5067 102.203 39.64C102.363 39.8267 102.496 40.08 102.603 40.4C102.736 40.72 102.856 41 102.963 41.24C103.176 41.6667 103.363 42 103.523 42.24C103.683 42.4533 103.936 42.7333 104.283 43.08C105.323 44.1733 106.616 44.72 108.163 44.72C109.016 44.72 109.789 44.6267 110.483 44.44C111.203 44.2533 111.776 43.9067 112.203 43.4C112.629 42.8667 112.843 42.1067 112.843 41.12C112.843 40.2667 112.576 39.56 112.043 39C111.509 38.4133 110.816 37.8933 109.963 37.44C109.136 36.9867 108.256 36.5467 107.323 36.12C106.389 35.6933 105.496 35.2267 104.643 34.72C103.816 34.1867 103.136 33.5467 102.603 32.8C102.069 32.0533 101.803 31.1467 101.803 30.08C101.803 28.7733 102.136 27.7067 102.803 26.88C103.496 26.0533 104.376 25.44 105.443 25.04C106.509 24.6133 107.616 24.4 108.763 24.4C109.509 24.4 110.176 24.4933 110.763 24.68C111.376 24.8667 112.016 25.08 112.683 25.32C112.896 25.4 113.109 25.4533 113.323 25.48C113.536 25.5067 113.749 25.52 113.963 25.52C114.096 25.52 114.216 25.52 114.323 25.52C114.429 25.52 114.536 25.5067 114.643 25.48C114.723 25.96 114.789 26.4533 114.843 26.96C114.923 27.44 114.989 27.9333 115.043 28.44C115.069 28.6267 115.096 28.8533 115.123 29.12C115.176 29.36 115.203 29.5867 115.203 29.8C115.203 29.9867 115.163 30.1867 115.083 30.4C115.003 30.5867 114.843 30.68 114.603 30.68C114.416 30.68 114.256 30.6667 114.123 30.64C114.016 30.5867 113.923 30.4667 113.843 30.28C113.709 30.0133 113.589 29.7333 113.483 29.44C113.403 29.12 113.309 28.8267 113.203 28.56C112.856 27.6267 112.256 26.88 111.403 26.32C110.549 25.7333 109.629 25.44 108.643 25.44C107.389 25.44 106.443 25.8133 105.803 26.56C105.163 27.28 104.843 28.2533 104.843 29.48C104.843 29.9067 104.949 30.32 105.163 30.72C105.403 31.12 105.669 31.4667 105.963 31.76C106.523 32.2933 107.176 32.7067 107.923 33C108.696 33.2933 109.429 33.5867 110.123 33.88C111.029 34.28 111.963 34.76 112.923 35.32C113.909 35.88 114.736 36.56 115.403 37.36C116.096 38.16 116.443 39.1333 116.443 40.28ZM130.414 45.4C130.414 45.5333 130.374 45.6667 130.294 45.8C130.214 45.9067 130.108 45.96 129.974 45.96C129.228 45.96 128.481 45.9467 127.734 45.92C127.014 45.8667 126.268 45.84 125.494 45.84H124.414C123.614 45.84 122.814 45.8667 122.014 45.92C121.241 45.9467 120.468 45.96 119.694 45.96C119.588 45.96 119.508 45.8933 119.454 45.76C119.428 45.6267 119.414 45.52 119.414 45.44C119.414 45.3067 119.428 45.2133 119.454 45.16C119.481 45.08 119.561 45.0267 119.694 45C119.828 44.9467 119.974 44.9333 120.134 44.96C120.321 44.96 120.494 44.96 120.654 44.96C120.841 44.96 121.014 44.9733 121.174 45C121.334 45 121.508 45 121.694 45C122.068 45 122.401 44.92 122.694 44.76C123.014 44.5733 123.174 44.2667 123.174 43.84V27.84C123.174 27.3867 123.094 27.04 122.934 26.8C122.774 26.5333 122.441 26.4 121.934 26.4C121.561 26.4 121.174 26.4267 120.774 26.48C120.401 26.5067 120.028 26.5467 119.654 26.6C119.441 26.6 119.334 26.48 119.334 26.24C119.334 25.9733 119.441 25.8 119.654 25.72C119.974 25.6133 120.308 25.5467 120.654 25.52C121.028 25.4667 121.374 25.4133 121.694 25.36C122.441 25.2267 123.188 25.08 123.934 24.92C124.681 24.76 125.414 24.5867 126.134 24.4C126.214 24.3733 126.321 24.36 126.454 24.36C126.748 24.36 126.894 24.52 126.894 24.84C126.894 27.9867 126.881 31.1467 126.854 34.32C126.854 37.4933 126.854 40.6667 126.854 43.84C126.854 44.2667 127.041 44.5733 127.414 44.76C127.814 44.92 128.188 45 128.534 45C128.801 45 129.068 44.9867 129.334 44.96C129.628 44.9333 129.908 44.92 130.174 44.92C130.281 44.92 130.348 44.9867 130.374 45.12C130.401 45.2533 130.414 45.3467 130.414 45.4ZM127.174 17.72C127.174 18.3867 126.934 18.96 126.454 19.44C125.974 19.8933 125.401 20.12 124.734 20.12C124.068 20.12 123.494 19.8933 123.014 19.44C122.534 18.96 122.294 18.3867 122.294 17.72C122.294 17.0533 122.534 16.4933 123.014 16.04C123.494 15.56 124.068 15.32 124.734 15.32C125.401 15.32 125.974 15.56 126.454 16.04C126.934 16.4933 127.174 17.0533 127.174 17.72ZM150.324 35.44C150.324 34.2933 150.231 33.1467 150.044 32C149.884 30.8267 149.564 29.7467 149.084 28.76C148.631 27.7733 147.964 26.9867 147.084 26.4C146.204 25.7867 145.058 25.48 143.644 25.48C142.311 25.48 141.218 25.8 140.364 26.44C139.538 27.08 138.884 27.9067 138.404 28.92C137.951 29.9333 137.631 31.0267 137.444 32.2C137.284 33.3733 137.204 34.48 137.204 35.52C137.204 36.6667 137.284 37.8133 137.444 38.96C137.631 40.1067 137.964 41.1467 138.444 42.08C138.924 42.9867 139.604 43.72 140.484 44.28C141.391 44.84 142.551 45.12 143.964 45.12C145.351 45.12 146.458 44.8267 147.284 44.24C148.138 43.6533 148.778 42.88 149.204 41.92C149.658 40.96 149.951 39.92 150.084 38.8C150.244 37.6533 150.324 36.5333 150.324 35.44ZM154.444 35.56C154.444 37.56 153.964 39.36 153.004 40.96C152.071 42.56 150.791 43.8267 149.164 44.76C147.564 45.6933 145.764 46.16 143.764 46.16C141.818 46.16 140.058 45.6933 138.484 44.76C136.911 43.8 135.658 42.5333 134.724 40.96C133.791 39.36 133.324 37.5867 133.324 35.64C133.324 33.64 133.778 31.8 134.684 30.12C135.591 28.4133 136.831 27.04 138.404 26C140.004 24.96 141.844 24.44 143.924 24.44C146.164 24.44 148.071 24.92 149.644 25.88C151.218 26.8133 152.404 28.12 153.204 29.8C154.031 31.4533 154.444 33.3733 154.444 35.56ZM180.969 45.4C180.969 45.7467 180.769 45.92 180.369 45.92C179.782 45.92 179.182 45.9067 178.569 45.88C177.956 45.8267 177.342 45.8 176.729 45.8C175.822 45.8 174.889 45.8267 173.929 45.88C172.996 45.9067 172.062 45.92 171.129 45.92C171.022 45.92 170.956 45.84 170.929 45.68C170.902 45.4933 170.889 45.3467 170.889 45.24C170.889 45.0267 171.022 44.92 171.289 44.92C171.556 44.92 171.769 44.92 171.929 44.92C172.062 44.92 172.196 44.9333 172.329 44.96C172.489 44.96 172.636 44.96 172.769 44.96C173.542 44.96 173.969 44.5733 174.049 43.8C174.129 42.2267 174.156 40.64 174.129 39.04C174.129 37.44 174.129 35.8533 174.129 34.28C174.129 33.9867 174.129 33.6933 174.129 33.4C174.129 33.08 174.129 32.7733 174.129 32.48C174.102 31.8667 174.062 31.12 174.009 30.24C173.956 29.3333 173.836 28.6 173.649 28.04C173.222 26.6533 172.289 25.96 170.849 25.96C169.542 25.96 168.342 26.2933 167.249 26.96C166.156 27.6267 165.209 28.4667 164.409 29.48C164.382 31.4267 164.369 33.36 164.369 35.28C164.369 37.2 164.369 39.12 164.369 41.04V43.8C164.369 44.2 164.542 44.4933 164.889 44.68C165.236 44.8667 165.582 44.96 165.929 44.96C166.142 44.96 166.342 44.9467 166.529 44.92C166.742 44.8667 166.942 44.84 167.129 44.84C167.236 44.84 167.302 44.9067 167.329 45.04C167.356 45.1733 167.369 45.28 167.369 45.36C167.369 45.4667 167.329 45.5867 167.249 45.72C167.196 45.8533 167.089 45.92 166.929 45.92C166.342 45.92 165.756 45.9067 165.169 45.88C164.609 45.8267 164.036 45.8 163.449 45.8C162.542 45.8 161.636 45.8267 160.729 45.88C159.822 45.9067 158.902 45.92 157.969 45.92C157.836 45.92 157.756 45.84 157.729 45.68C157.729 45.4933 157.729 45.3467 157.729 45.24C157.729 45.0267 157.849 44.92 158.089 44.92C158.329 44.92 158.516 44.92 158.649 44.92C158.782 44.92 158.916 44.9333 159.049 44.96C159.182 44.96 159.316 44.96 159.449 44.96C160.222 44.96 160.649 44.5733 160.729 43.8C160.756 43.4267 160.769 43.0533 160.769 42.68C160.769 42.3067 160.769 41.9333 160.769 41.56C160.769 39.2667 160.769 36.9733 160.769 34.68C160.769 32.36 160.756 30.0533 160.729 27.76C160.729 27.3867 160.649 27.0133 160.489 26.64C160.329 26.2667 160.022 26.08 159.569 26.08C159.222 26.08 158.889 26.1333 158.569 26.24C158.249 26.3467 157.916 26.4 157.569 26.4C157.382 26.4 157.289 26.2667 157.289 26C157.289 25.9467 157.289 25.8933 157.289 25.84C157.316 25.76 157.342 25.7067 157.369 25.68C157.396 25.6533 157.436 25.64 157.489 25.64C157.542 25.6133 157.582 25.5867 157.609 25.56C158.089 25.4267 158.582 25.3333 159.089 25.28C159.622 25.2267 160.129 25.1467 160.609 25.04C161.062 24.96 161.502 24.8533 161.929 24.72C162.356 24.56 162.782 24.48 163.209 24.48C163.396 24.48 163.542 24.5733 163.649 24.76C163.782 25 163.889 25.3467 163.969 25.8C164.049 26.2267 164.102 26.6667 164.129 27.12C164.182 27.5733 164.209 27.9467 164.209 28.24C164.796 27.6533 165.489 27.08 166.289 26.52C167.116 25.9333 167.969 25.4533 168.849 25.08C169.756 24.68 170.636 24.48 171.489 24.48C173.942 24.48 175.596 25.0267 176.449 26.12C177.329 27.1867 177.769 28.88 177.769 31.2C177.769 33.28 177.756 35.36 177.729 37.44C177.729 39.52 177.729 41.6 177.729 43.68C177.729 44.1867 177.876 44.5333 178.169 44.72C178.489 44.88 178.862 44.96 179.289 44.96C179.502 44.96 179.716 44.9467 179.929 44.92C180.142 44.8667 180.342 44.84 180.529 44.84C180.689 44.84 180.796 44.9067 180.849 45.04C180.929 45.1467 180.969 45.2667 180.969 45.4ZM203.563 37.84C203.563 35.7067 203.123 34.0533 202.243 32.88C201.389 31.7067 199.829 31.0933 197.563 31.04C197.136 31.04 196.709 31.04 196.283 31.04C195.856 31.0133 195.429 31 195.003 31C194.336 31 193.656 31.0133 192.963 31.04C192.296 31.0667 191.616 31.08 190.923 31.08V43.6C190.923 44.08 191.056 44.4267 191.323 44.64C191.616 44.8533 191.963 44.9867 192.363 45.04C192.763 45.0667 193.136 45.08 193.483 45.08C193.936 45.08 194.389 45.08 194.843 45.08C195.323 45.0533 195.789 45.0267 196.243 45C198.456 44.8667 200.229 44.2267 201.562 43.08C202.896 41.9333 203.563 40.1867 203.563 37.84ZM201.523 23.64C201.523 21.5867 200.963 20.12 199.843 19.24C198.723 18.3333 197.176 17.88 195.203 17.88C194.483 17.88 193.763 17.8933 193.043 17.92C192.349 17.92 191.643 17.9467 190.923 18V29.96C191.296 29.96 191.656 29.9733 192.003 30C192.349 30 192.696 30 193.043 30C193.709 30 194.443 29.9733 195.243 29.92C196.069 29.8667 196.856 29.7333 197.603 29.52C198.376 29.3067 199.016 28.96 199.523 28.48C200.136 27.8667 200.616 27.1333 200.963 26.28C201.336 25.4 201.523 24.52 201.523 23.64ZM207.843 37.2C207.843 39.0667 207.403 40.6933 206.523 42.08C205.643 43.44 204.323 44.4667 202.563 45.16C201.629 45.5333 200.603 45.7867 199.483 45.92C198.389 46.0267 197.336 46.08 196.323 46.08C196.136 46.08 195.936 46.08 195.723 46.08C195.536 46.08 195.349 46.0667 195.163 46.04C193.883 45.9867 192.603 45.9467 191.323 45.92C190.069 45.8667 188.803 45.84 187.523 45.84C186.803 45.84 186.083 45.8933 185.363 46C184.669 46.08 183.963 46.12 183.243 46.12C183.029 46.12 182.909 46.04 182.882 45.88C182.856 45.6933 182.843 45.52 182.843 45.36C182.843 45.0667 182.963 44.92 183.203 44.92C183.576 44.92 183.963 44.92 184.363 44.92C184.789 44.8933 185.189 44.8533 185.563 44.8C186.123 44.72 186.483 44.5067 186.643 44.16C186.829 43.7867 186.936 43.3467 186.963 42.84C187.016 42.3067 187.029 41.7867 187.003 41.28C186.976 40.7733 186.963 40.2667 186.963 39.76C186.963 38.7733 186.963 37.7867 186.963 36.8C186.989 35.7867 187.003 34.7867 187.003 33.8V29.44C187.003 28 186.989 26.56 186.963 25.12C186.963 23.68 186.963 22.24 186.963 20.8C186.963 20.5333 186.949 20.28 186.923 20.04C186.923 19.7733 186.883 19.52 186.803 19.28C186.616 18.7467 186.283 18.4267 185.803 18.32C185.349 18.1867 184.883 18.12 184.403 18.12C184.216 18.12 184.016 18.1333 183.803 18.16C183.616 18.16 183.416 18.16 183.203 18.16C183.016 18.16 182.896 18.0667 182.843 17.88C182.816 17.6933 182.803 17.5467 182.803 17.44C182.803 17.3333 182.816 17.2267 182.843 17.12C182.896 16.9867 182.989 16.92 183.123 16.92C183.736 16.92 184.336 16.9467 184.923 17C185.509 17.0267 186.096 17.04 186.683 17.04C188.256 17.04 189.803 17 191.323 16.92C192.869 16.8133 194.416 16.7067 195.963 16.6C196.176 16.5733 196.376 16.56 196.563 16.56C196.749 16.56 196.936 16.56 197.123 16.56C198.616 16.56 200.016 16.76 201.323 17.16C202.656 17.5333 203.736 18.2 204.563 19.16C205.389 20.12 205.803 21.4667 205.803 23.2C205.803 24.2933 205.509 25.28 204.923 26.16C204.363 27.0133 203.629 27.76 202.723 28.4C201.843 29.0133 200.936 29.5067 200.003 29.88V30.08C201.283 30.2933 202.523 30.68 203.723 31.24C204.923 31.7733 205.909 32.5333 206.683 33.52C207.456 34.48 207.843 35.7067 207.843 37.2Z" fill="black"/>
<path d="M290.36 45.44C290.36 45.7867 290.2 45.96 289.88 45.96C288.893 45.96 287.92 45.9333 286.96 45.88C286 45.8267 285.04 45.8 284.08 45.8C283.627 45.8 283.173 45.8133 282.72 45.84C282.267 45.84 281.813 45.8533 281.36 45.88C280.907 45.9067 280.453 45.9467 280 46C279.573 46.0267 279.133 46.04 278.68 46.04C278.44 46.04 278.28 45.9733 278.2 45.84C278.147 45.68 278.12 45.5067 278.12 45.32C278.12 45.2133 278.147 45.1067 278.2 45C278.253 44.8667 278.347 44.8 278.48 44.8C278.56 44.7733 278.68 44.76 278.84 44.76C279.027 44.76 279.213 44.7733 279.4 44.8C279.613 44.8 279.813 44.8 280 44.8C280.373 44.8 280.787 44.76 281.24 44.68C281.72 44.6 281.987 44.3067 282.04 43.8C282.067 43.72 282.067 43.64 282.04 43.56C282.04 43.48 282.04 43.4 282.04 43.32V18.8H281.8C280.787 21.5467 279.733 24.28 278.64 27C277.547 29.6933 276.453 32.3867 275.36 35.08C274.933 36.1733 274.493 37.2667 274.04 38.36C273.587 39.4533 273.133 40.5467 272.68 41.64C272.493 42.12 272.307 42.6133 272.12 43.12C271.96 43.6267 271.76 44.1067 271.52 44.56C271.333 44.8533 271.04 45 270.64 45C270.267 45 269.987 44.8533 269.8 44.56C269.587 44.16 269.387 43.7333 269.2 43.28C269.04 42.8267 268.867 42.3867 268.68 41.96C268.28 41.0267 267.893 40.1067 267.52 39.2C267.147 38.2933 266.773 37.3867 266.4 36.48C265.173 33.5467 263.947 30.6267 262.72 27.72C261.52 24.7867 260.32 21.8667 259.12 18.96C259.12 23.0933 259.12 27.24 259.12 31.4C259.147 35.5333 259.16 39.6667 259.16 43.8C259.16 44.3333 259.387 44.64 259.84 44.72C260.32 44.8 260.76 44.84 261.16 44.84C261.427 44.84 261.693 44.8267 261.96 44.8C262.227 44.7733 262.493 44.76 262.76 44.76C262.893 44.76 262.96 44.84 262.96 45C262.96 45.1333 262.947 45.32 262.92 45.56C262.893 45.8 262.787 45.92 262.6 45.92C261.88 45.92 261.147 45.9067 260.4 45.88C259.68 45.8267 258.96 45.8 258.24 45.8C257.547 45.8 256.84 45.8267 256.12 45.88C255.427 45.9067 254.733 45.92 254.04 45.92C254.013 45.8667 253.987 45.8267 253.96 45.8C253.96 45.7467 253.947 45.7067 253.92 45.68V45.32C253.92 45.0533 253.973 44.9067 254.08 44.88C254.187 44.8533 254.333 44.84 254.52 44.84C254.733 44.84 254.933 44.8533 255.12 44.88C255.307 44.88 255.493 44.88 255.68 44.88C256.08 44.88 256.507 44.8267 256.96 44.72C257.413 44.6133 257.653 44.3067 257.68 43.8C257.733 43.3733 257.747 42.9467 257.72 42.52C257.72 42.0667 257.72 41.6267 257.72 41.2C257.72 40.3467 257.707 39.4933 257.68 38.64C257.68 37.76 257.68 36.8933 257.68 36.04C257.68 33.1867 257.693 30.3467 257.72 27.52C257.773 24.6933 257.8 21.8667 257.8 19.04C257.8 18.5333 257.56 18.2 257.08 18.04C256.6 17.88 256.16 17.8 255.76 17.8C255.52 17.8 255.28 17.8133 255.04 17.84C254.8 17.8667 254.56 17.88 254.32 17.88C254.16 17.88 254.053 17.8 254 17.64C253.947 17.48 253.92 17.3467 253.92 17.24C253.92 16.8667 254.067 16.68 254.36 16.68C255.053 16.68 255.76 16.7067 256.48 16.76C257.2 16.7867 257.907 16.8 258.6 16.8C259.96 16.8 261.32 16.76 262.68 16.68L272.16 39.48C273.627 35.6667 275.16 31.8933 276.76 28.16C278.36 24.4 279.84 20.6 281.2 16.76C281.867 16.7867 282.52 16.8133 283.16 16.84C283.827 16.84 284.493 16.84 285.16 16.84C285.96 16.84 286.747 16.8133 287.52 16.76C288.32 16.68 289.12 16.64 289.92 16.64C290.08 16.64 290.173 16.72 290.2 16.88C290.227 17.04 290.24 17.1733 290.24 17.28C290.24 17.3867 290.227 17.52 290.2 17.68C290.173 17.84 290.08 17.92 289.92 17.92C289.573 17.92 289.24 17.9067 288.92 17.88C288.6 17.8533 288.28 17.84 287.96 17.84C287.64 17.84 287.24 17.92 286.76 18.08C286.307 18.2133 286.08 18.48 286.08 18.88V43.48C286.08 44.0933 286.253 44.48 286.6 44.64C286.973 44.7733 287.44 44.84 288 44.84C288.32 44.84 288.64 44.8267 288.96 44.8C289.28 44.7733 289.613 44.76 289.96 44.76C290.173 44.76 290.293 44.84 290.32 45C290.347 45.16 290.36 45.3067 290.36 45.44Z" fill="black"/>
</svg>
